<?xml version="1.0" standalone="no"?>
<!DOCTYPE svg PUBLIC "-//W3C//DTD SVG 20010904//EN"
 "http://www.w3.org/TR/2001/REC-SVG-20010904/DTD/svg10.dtd">
<svg version="1.0" xmlns="http://www.w3.org/2000/svg"
 width="150.000000pt" height="150.000000pt" viewBox="0 0 150.000000 150.000000"
 preserveAspectRatio="xMidYMid meet">
<metadata>
Created by potrace 1.11, written by Peter Selinger 2001-2013
</metadata>
<g transform="translate(0.000000,150.000000) scale(0.100000,-0.100000)"
fill="#000000" stroke="none">
<path d="M646 1330 c-71 -13 -145 -38 -192 -65 -37 -22 -42 -23 -57 -8 -15 15
-16 15 -11 -4 4 -14 -12 -37 -63 -89 -116 -117 -175 -257 -176 -419 -1 -173
52 -304 173 -425 86 -87 162 -131 276 -160 78 -20 224 -27 224 -11 0 4 -10 31
-21 60 l-22 51 -59 0 c-114 0 -234 57 -326 154 -142 150 -172 370 -74 549 29
53 107 147 123 147 25 0 16 -30 -21 -70 -218 -236 -116 -626 189 -720 35 -11
83 -20 107 -20 l43 0 -28 62 c-26 60 -29 62 -84 81 -71 23 -149 92 -184 160
-31 62 -40 150 -23 212 15 55 68 141 79 129 4 -5 73 -159 152 -342 l144 -333
39 6 c69 10 164 63 226 125 32 32 61 68 65 80 6 20 -28 58 -255 285 -178 178
-258 265 -250 270 7 4 43 10 80 13 132 9 242 -55 301 -174 29 -58 33 -77 33
-140 l-1 -73 48 -47 48 -47 13 29 c7 18 13 74 13 145 0 113 -1 116 -37 190
-106 213 -356 306 -571 212 -34 -15 -39 -15 -53 -1 -14 13 -10 17 35 36 214
93 463 21 590 -168 83 -125 107 -286 63 -415 l-21 -60 44 -45 44 -44 20 45
c57 128 66 310 21 439 -63 185 -213 329 -400 384 -67 20 -199 28 -264 16z"/>
</g>
</svg>
